<?xml version="1.0" encoding="UTF-8" standalone="no"?>
<svg
   xmlns:dc="http://purl.org/dc/elements/1.1/"
   xmlns:cc="http://creativecommons.org/ns#"
   xmlns:rdf="http://www.w3.org/1999/02/22-rdf-syntax-ns#"
   xmlns:svg="http://www.w3.org/2000/svg"
   xmlns="http://www.w3.org/2000/svg"
   xmlns:sodipodi="http://sodipodi.sourceforge.net/DTD/sodipodi-0.dtd"
   xmlns:inkscape="http://www.inkscape.org/namespaces/inkscape"
   viewBox="0 0 171 51.530933"
   id="svg2"
   version="1.1"
   inkscape:version="0.91 r13725"
   sodipodi:docname="GarageLab_Logo.svg"
   width="171"
   height="51.530933">
  <defs
     id="defs4">
    <clipPath
       clipPathUnits="userSpaceOnUse"
       id="clipPath2999">
      <path
         inkscape:connector-curvature="0"
         d="m 0,841.89 595.28,0 L 595.28,0 0,0 0,841.89 Z"
         id="path3001" />
    </clipPath>
  </defs>
  <sodipodi:namedview
     id="base"
     pagecolor="#ffffff"
     bordercolor="#666666"
     borderopacity="1.0"
     inkscape:pageopacity="0.0"
     inkscape:pageshadow="2"
     inkscape:zoom="1.4"
     inkscape:cx="115.19149"
     inkscape:cy="-84.359433"
     inkscape:document-units="px"
     inkscape:current-layer="layer1"
     showgrid="false"
     fit-margin-top="4"
     fit-margin-left="2"
     fit-margin-right="2"
     fit-margin-bottom="4"
     inkscape:window-width="1280"
     inkscape:window-height="1002"
     inkscape:window-x="1358"
     inkscape:window-y="-8"
     inkscape:window-maximized="1" />
  <metadata
     id="metadata7">
    <rdf:RDF>
      <cc:Work
         rdf:about="">
        <dc:format>image/svg+xml</dc:format>
        <dc:type
           rdf:resource="http://purl.org/dc/dcmitype/StillImage" />
        <dc:title></dc:title>
      </cc:Work>
    </rdf:RDF>
  </metadata>
  <g
     inkscape:label="Ebene 1"
     inkscape:groupmode="layer"
     id="layer1"
     transform="translate(-82.1144,-150.90576)">
    <g
       id="g3560"
       transform="matrix(0.35420556,0,0,0.35420556,56.445845,124.72772)">
      <g
         transform="matrix(1.25,0,0,-1.25,261.68253,171.24075)"
         id="g3255">
        <path
           id="path3257"
           style="fill:#73c6cb;fill-opacity:1;fill-rule:nonzero;stroke:none"
           d="m 0,0 c 0,-1.348 -0.292,-2.344 -1.641,-2.871 -2.93,-1.113 -6.388,-1.699 -10.724,-1.699 -13.538,0 -18.988,7.208 -18.988,20.218 0,12.776 5.157,20.804 19.457,20.804 3.458,0 7.267,-0.586 8.497,-1.23 1.407,-0.762 2.11,-1.758 2.11,-4.806 0,-3.047 -1.172,-4.981 -2.813,-4.747 -1.524,0.235 -3.868,0.469 -5.333,0.469 -4.865,0 -8.205,-0.938 -8.205,-10.549 0,-8.38 1.582,-9.787 5.391,-9.787 0.529,0 0.938,0.058 1.173,0.117 0.234,0.059 0.293,0.177 0.293,0.586 l 0,2.989 c 0,1.231 -0.234,1.525 -0.879,1.525 l -0.82,0 c -1.348,0 -2.11,1.522 -2.11,4.629 0,3.282 0.762,5.157 2.286,5.157 l 8.321,0 C -0.351,20.805 0,19.282 0,16.352 L 0,0 Z"
           inkscape:connector-curvature="0" />
      </g>
      <g
         transform="matrix(1.25,0,0,-1.25,287.46615,161.64362)"
         id="g3259">
        <path
           id="path3261"
           style="fill:#73c6cb;fill-opacity:1;fill-rule:nonzero;stroke:none"
           d="m 0,0 c 0,1.289 -0.293,1.465 -1.29,1.465 l -0.761,0 c -2.462,0 -2.93,-0.996 -2.93,-3.282 0,-2.051 0.468,-3.164 3.046,-3.164 1.759,0 1.935,0.175 1.935,1.406 L 0,0 Z m 12.365,-7.795 c 0,-2.519 -0.82,-3.105 -2.812,-3.575 -3.342,-0.586 -9.143,-0.878 -12.132,-0.878 -9.845,0 -13.889,2.285 -13.889,9.259 0,5.802 1.64,8.967 9.611,9.846 L -1.7,7.443 c 1.407,0.175 1.524,0.292 1.524,1.464 0,1.173 -0.586,1.466 -4.044,1.466 -2.696,0 -5.215,-0.234 -7.208,-0.469 -1.7,-0.175 -2.813,0.996 -2.813,3.867 0,2.345 0.528,3.87 2.285,4.865 1.759,0.938 6.212,1.641 9.377,1.641 10.022,0 14.944,-2.403 14.944,-9.67 l 0,-18.402 z"
           inkscape:connector-curvature="0" />
      </g>
      <g
         transform="matrix(1.25,0,0,-1.25,330.38915,148.45762)"
         id="g3263">
        <path
           id="path3265"
           style="fill:#73c6cb;fill-opacity:1;fill-rule:nonzero;stroke:none"
           d="m 0,0 c -0.997,0 -1.933,0.176 -3.281,0.176 -0.879,0 -1.173,-0.352 -1.173,-2.345 l 0,-18.167 c 0,-1.758 -3.397,-2.11 -6.211,-2.11 -2.812,0 -6.329,0.352 -6.329,2.11 l 0,25.728 c 0,2.403 2.638,3.222 4.63,3.575 2.813,0.469 7.324,0.762 10.254,0.762 3.223,0 3.985,-1.173 3.985,-5.333 C 1.875,2.109 1.406,0 0,0"
           inkscape:connector-curvature="0" />
      </g>
      <g
         transform="matrix(1.25,0,0,-1.25,353.7534,161.64362)"
         id="g3267">
        <path
           id="path3269"
           style="fill:#73c6cb;fill-opacity:1;fill-rule:nonzero;stroke:none"
           d="m 0,0 c 0,1.289 -0.293,1.465 -1.289,1.465 l -0.761,0 c -2.462,0 -2.931,-0.996 -2.931,-3.282 0,-2.051 0.469,-3.164 3.047,-3.164 1.758,0 1.934,0.175 1.934,1.406 L 0,0 Z m 12.366,-7.795 c 0,-2.519 -0.82,-3.105 -2.813,-3.575 -3.34,-0.586 -9.143,-0.878 -12.13,-0.878 -9.846,0 -13.889,2.285 -13.889,9.259 0,5.802 1.641,8.967 9.61,9.846 l 5.157,0.586 c 1.406,0.175 1.523,0.292 1.523,1.464 0,1.173 -0.586,1.466 -4.044,1.466 -2.695,0 -5.214,-0.234 -7.207,-0.469 -1.7,-0.175 -2.812,0.996 -2.812,3.867 0,2.345 0.527,3.87 2.285,4.865 1.757,0.938 6.211,1.641 9.377,1.641 10.02,0 14.943,-2.403 14.943,-9.67 l 0,-18.402 z"
           inkscape:connector-curvature="0" />
      </g>
      <g
         transform="matrix(1.25,0,0,-1.25,397.1189,147.87162)"
         id="g3271">
        <path
           id="path3273"
           style="fill:#73c6cb;fill-opacity:1;fill-rule:nonzero;stroke:none"
           d="m 0,0 c 0,0.41 -0.234,0.527 -1.641,0.527 -2.755,0 -3.809,-1.523 -3.809,-6.856 0,-5.217 1.054,-6.212 3.809,-6.212 1.407,0 1.641,0.117 1.641,0.351 L 0,0 Z m 12.425,-21.215 c 0,-9.904 -6.33,-12.014 -16.528,-12.014 -5.157,0 -9.259,0.761 -11.017,1.817 -1.055,0.586 -1.641,1.816 -1.641,4.044 0,3.047 1.289,3.985 2.461,3.867 2.051,-0.176 5.568,-0.409 8.733,-0.409 4.805,0 5.567,0.292 5.567,1.875 l 0,0.879 c 0,0.996 -0.645,1.113 -4.747,1.113 -8.322,0 -13.361,1.699 -13.361,12.658 0,11.956 4.805,16.645 18.401,16.645 2.988,0 6.095,-0.293 9.377,-0.938 2.051,-0.351 2.755,-1.054 2.755,-3.575 l 0,-25.962 z"
           inkscape:connector-curvature="0" />
      </g>
      <g
         transform="matrix(1.25,0,0,-1.25,433.6704,151.31525)"
         id="g3275">
        <path
           id="path3277"
           style="fill:#73c6cb;fill-opacity:1;fill-rule:nonzero;stroke:none"
           d="m 0,0 c 0,-1.055 0.468,-1.405 1.523,-1.405 l 3.869,0 c 1.289,0 1.523,0.35 1.523,1.699 0,2.461 -0.586,3.692 -3.34,3.692 C 0.703,3.986 0,2.521 0,0.353 L 0,0 Z m 2.051,-7.618 c -1.348,-0.059 -1.7,-0.235 -1.7,-1.348 0,-1.583 1.348,-2.11 5.626,-2.11 2.813,0 5.334,0.234 7.209,0.469 1.406,0.117 3.165,-0.41 3.165,-3.282 0,-2.461 -1.056,-4.454 -1.993,-5.041 -1.348,-0.878 -5.099,-1.581 -10.022,-1.581 -11.897,0 -16.233,4.689 -16.233,14.945 l 0,0.703 c 0,13.889 5.978,16.878 15.94,16.878 8.908,0 12.952,-3.634 12.952,-12.19 0,-5.099 -0.527,-6.506 -5.45,-6.974 L 2.051,-7.618 Z"
           inkscape:connector-curvature="0" />
      </g>
      <g
         transform="matrix(1.25,0,0,-1.25,466.66965,169.89312)"
         id="g3279">
        <path
           id="path3281"
           style="fill:#58aeb4;fill-opacity:1;fill-rule:nonzero;stroke:none"
           d="m 0,0 c 0,-1.23 0.82,-1.699 2.227,-1.699 l 10.021,0 c 0.939,0 1.289,-0.352 1.289,-1.172 0,-0.939 -0.35,-1.289 -1.289,-1.289 l -9.727,0 c -3.634,0 -5.334,1.289 -5.334,4.22 l 0,34.342 c 0,1.171 0.411,1.523 1.406,1.523 C -0.41,35.925 0,35.573 0,34.402 L 0,0 Z"
           inkscape:connector-curvature="0" />
      </g>
      <g
         transform="matrix(1.25,0,0,-1.25,510.0339,159.63675)"
         id="g3283">
        <path
           id="path3285"
           style="fill:#58aeb4;fill-opacity:1;fill-rule:nonzero;stroke:none"
           d="m 0,0 c 0,2.461 -0.175,2.988 -2.637,2.988 l -3.282,0 c -6.915,0 -9.669,-0.878 -9.669,-7.208 0,-5.216 2.696,-6.563 9.552,-6.563 5.92,0 6.036,0.234 6.036,3.985 L 0,0 Z M -2.05,5.45 C -0.058,5.626 0,5.743 0,9.61 c 0,5.16 -0.995,7.678 -7.5,7.678 -2.286,0 -5.1,-0.292 -7.326,-0.82 -0.704,-0.176 -1.055,0.528 -1.055,1.054 0,0.646 0.176,0.88 0.586,1.055 1.759,0.586 4.864,0.997 7.501,0.997 8.732,0 10.315,-2.813 10.315,-10.783 l 0,-17.992 c 0,-3.224 -0.938,-3.751 -8.557,-3.751 -8.966,0 -12.19,2.11 -12.19,8.732 0,6.505 1.935,8.497 10.726,9.26 l 5.45,0.41 z"
           inkscape:connector-curvature="0" />
      </g>
      <g
         transform="matrix(1.25,0,0,-1.25,524.90453,169.013)"
         id="g3287">
        <path
           id="path3289"
           style="fill:#58aeb4;fill-opacity:1;fill-rule:nonzero;stroke:none"
           d="m 0,0 c 0,-3.048 1.523,-3.166 6.036,-3.166 8.498,0 10.902,3.517 10.902,14.711 0,10.138 -2.638,13.244 -9.73,13.244 C 4.103,24.789 0,24.672 0,22.562 L 0,0 Z m -2.695,36.569 c 0,1.289 0.351,1.641 1.289,1.641 C -0.352,38.21 0,37.858 0,36.569 l 0,-9.084 c 0,-0.527 0.059,-0.821 0.82,-0.821 1.056,0 3.341,0.411 6.857,0.411 8.791,0 12.073,-4.395 12.073,-15.53 0,-12.015 -3.224,-16.996 -13.362,-16.996 -2.637,0 -4.689,0.118 -6.622,0.41 -2.11,0.294 -2.461,1.056 -2.461,2.696 l 0,38.914 z"
           inkscape:connector-curvature="0" />
      </g>
      <g
         transform="matrix(1.25,0,0,-1.25,131.6544,190.60962)"
         id="g3355">
        <path
           id="path3357"
           style="fill:#48676e;fill-opacity:1;fill-rule:nonzero;stroke:none"
           d="m 0,0 0.018,9.197 c 3.579,0.217 6.01,3.246 6.021,8.357 0.015,7.489 -5.172,16.608 -11.585,20.367 -6.416,3.758 -11.626,0.732 -11.643,-6.757 -0.011,-5.48 2.766,-11.831 6.769,-16.318 l -0.019,-8.73 -13.32,7.806 0.08,39.776 -6.812,4.685 c -3.677,-6.918 -5.765,-14.826 -5.765,-23.228 0,-16.705 8.244,-31.462 20.847,-40.347 1.079,-0.761 -27.423,-8.797 -27.423,-8.797 0,0 45.311,0.275 53.64,0 l 0,7.656 L 0,0 Z"
           inkscape:connector-curvature="0" />
      </g>
      <g
         transform="matrix(1.25,0,0,-1.25,200.8439,117.66411)"
         id="g3359">
        <path
           id="path3361"
           style="fill:#f9a922;fill-opacity:1;fill-rule:nonzero;stroke:none"
           d="m 0,0 -6.473,-4.452 -0.025,-12.491 -8.009,-4.649 c -1.975,3.023 -5.787,3.636 -10.175,1.089 -6.429,-3.732 -11.652,-12.829 -11.669,-20.319 -0.014,-7.49 5.185,-10.537 11.614,-6.805 4.705,2.731 8.761,8.334 10.608,14.078 l 7.605,4.416 -0.032,-15.555 -34.757,-20.175 0,-7.483 C -15.176,-71.483 5.75,-49.813 5.75,-23.201 5.75,-14.812 3.668,-6.912 0,0"
           inkscape:connector-curvature="0" />
      </g>
      <g
         transform="matrix(1.25,0,0,-1.25,117.5474,111.19924)"
         id="g3363">
        <path
           id="path3365"
           style="fill:#58aeb4;fill-opacity:1;fill-rule:nonzero;stroke:none"
           d="m 0,0 7.975,-4.673 c -1.602,-3.239 -0.221,-6.88 4.155,-9.445 6.414,-3.759 16.826,-3.779 23.256,-0.048 6.428,3.732 6.44,9.805 0.027,13.562 -4.694,2.75 -11.527,3.497 -17.374,2.237 l -7.577,4.44 13.352,7.751 34.669,-20.315 6.529,4.148 C 56.41,11.553 41.128,20.8 23.709,20.8 6.298,20.8 -8.973,11.565 -17.578,-2.316 L -11.083,-6.433 0,0 Z"
           inkscape:connector-curvature="0" />
      </g>
      <g
         transform="matrix(1.25,0,0,-1.25,261.68253,171.24075)"
         id="g3367">
        <path
           id="path3369"
           style="fill:#73c6cb;fill-opacity:1;fill-rule:nonzero;stroke:none"
           d="m 0,0 c 0,-1.348 -0.292,-2.344 -1.641,-2.871 -2.93,-1.113 -6.388,-1.699 -10.724,-1.699 -13.538,0 -18.988,7.208 -18.988,20.218 0,12.776 5.157,20.804 19.457,20.804 3.458,0 7.267,-0.586 8.497,-1.23 1.407,-0.762 2.11,-1.758 2.11,-4.806 0,-3.047 -1.172,-4.981 -2.813,-4.747 -1.524,0.235 -3.868,0.469 -5.333,0.469 -4.865,0 -8.205,-0.938 -8.205,-10.549 0,-8.38 1.582,-9.787 5.391,-9.787 0.529,0 0.938,0.058 1.173,0.117 0.234,0.059 0.293,0.177 0.293,0.586 l 0,2.989 c 0,1.231 -0.234,1.525 -0.879,1.525 l -0.82,0 c -1.348,0 -2.11,1.522 -2.11,4.629 0,3.282 0.762,5.157 2.286,5.157 l 8.321,0 C -0.351,20.805 0,19.282 0,16.352 L 0,0 Z"
           inkscape:connector-curvature="0" />
      </g>
      <g
         transform="matrix(1.25,0,0,-1.25,287.46615,161.64362)"
         id="g3371">
        <path
           id="path3373"
           style="fill:#73c6cb;fill-opacity:1;fill-rule:nonzero;stroke:none"
           d="m 0,0 c 0,1.289 -0.293,1.465 -1.29,1.465 l -0.761,0 c -2.462,0 -2.93,-0.996 -2.93,-3.282 0,-2.051 0.468,-3.164 3.046,-3.164 1.759,0 1.935,0.175 1.935,1.406 L 0,0 Z m 12.365,-7.795 c 0,-2.519 -0.82,-3.105 -2.812,-3.575 -3.342,-0.586 -9.143,-0.878 -12.132,-0.878 -9.845,0 -13.889,2.285 -13.889,9.259 0,5.802 1.64,8.967 9.611,9.846 L -1.7,7.443 c 1.407,0.175 1.524,0.292 1.524,1.464 0,1.173 -0.586,1.466 -4.044,1.466 -2.696,0 -5.215,-0.234 -7.208,-0.469 -1.7,-0.175 -2.813,0.996 -2.813,3.867 0,2.345 0.528,3.87 2.285,4.865 1.759,0.938 6.212,1.641 9.377,1.641 10.022,0 14.944,-2.403 14.944,-9.67 l 0,-18.402 z"
           inkscape:connector-curvature="0" />
      </g>
      <g
         transform="matrix(1.25,0,0,-1.25,330.38915,148.45762)"
         id="g3375">
        <path
           id="path3377"
           style="fill:#73c6cb;fill-opacity:1;fill-rule:nonzero;stroke:none"
           d="m 0,0 c -0.997,0 -1.933,0.176 -3.282,0.176 -0.878,0 -1.172,-0.352 -1.172,-2.345 l 0,-18.167 c 0,-1.758 -3.397,-2.11 -6.21,-2.11 -2.814,0 -6.33,0.352 -6.33,2.11 l 0,25.728 c 0,2.403 2.638,3.222 4.63,3.575 2.813,0.469 7.324,0.762 10.254,0.762 3.223,0 3.985,-1.173 3.985,-5.333 C 1.875,2.109 1.406,0 0,0"
           inkscape:connector-curvature="0" />
      </g>
      <g
         transform="matrix(1.25,0,0,-1.25,353.7534,161.64362)"
         id="g3379">
        <path
           id="path3381"
           style="fill:#73c6cb;fill-opacity:1;fill-rule:nonzero;stroke:none"
           d="m 0,0 c 0,1.289 -0.293,1.465 -1.289,1.465 l -0.761,0 c -2.462,0 -2.931,-0.996 -2.931,-3.282 0,-2.051 0.469,-3.164 3.047,-3.164 1.758,0 1.934,0.175 1.934,1.406 L 0,0 Z m 12.366,-7.795 c 0,-2.519 -0.82,-3.105 -2.813,-3.575 -3.34,-0.586 -9.143,-0.878 -12.13,-0.878 -9.846,0 -13.889,2.285 -13.889,9.259 0,5.802 1.641,8.967 9.61,9.846 l 5.157,0.586 c 1.406,0.175 1.523,0.292 1.523,1.464 0,1.173 -0.586,1.466 -4.044,1.466 -2.695,0 -5.214,-0.234 -7.207,-0.469 -1.7,-0.175 -2.812,0.996 -2.812,3.867 0,2.345 0.527,3.87 2.285,4.865 1.757,0.938 6.211,1.641 9.377,1.641 10.02,0 14.943,-2.403 14.943,-9.67 l 0,-18.402 z"
           inkscape:connector-curvature="0" />
      </g>
      <g
         transform="matrix(1.25,0,0,-1.25,397.1189,147.87162)"
         id="g3383">
        <path
           id="path3385"
           style="fill:#73c6cb;fill-opacity:1;fill-rule:nonzero;stroke:none"
           d="m 0,0 c 0,0.41 -0.234,0.527 -1.641,0.527 -2.755,0 -3.809,-1.523 -3.809,-6.856 0,-5.217 1.054,-6.212 3.809,-6.212 1.407,0 1.641,0.117 1.641,0.351 L 0,0 Z m 12.425,-21.215 c 0,-9.904 -6.33,-12.014 -16.528,-12.014 -5.157,0 -9.259,0.761 -11.017,1.817 -1.055,0.586 -1.641,1.816 -1.641,4.044 0,3.047 1.289,3.985 2.461,3.867 2.051,-0.176 5.568,-0.409 8.733,-0.409 4.805,0 5.567,0.292 5.567,1.875 l 0,0.879 c 0,0.996 -0.645,1.113 -4.747,1.113 -8.322,0 -13.361,1.699 -13.361,12.658 0,11.956 4.805,16.645 18.401,16.645 2.988,0 6.095,-0.293 9.377,-0.938 2.051,-0.351 2.755,-1.054 2.755,-3.575 l 0,-25.962 z"
           inkscape:connector-curvature="0" />
      </g>
      <g
         transform="matrix(1.25,0,0,-1.25,433.6704,151.31525)"
         id="g3387">
        <path
           id="path3389"
           style="fill:#73c6cb;fill-opacity:1;fill-rule:nonzero;stroke:none"
           d="m 0,0 c 0,-1.055 0.468,-1.405 1.523,-1.405 l 3.869,0 c 1.289,0 1.523,0.35 1.523,1.699 0,2.461 -0.586,3.692 -3.34,3.692 C 0.703,3.986 0,2.521 0,0.353 L 0,0 Z m 2.051,-7.618 c -1.348,-0.059 -1.7,-0.235 -1.7,-1.348 0,-1.583 1.348,-2.11 5.626,-2.11 2.813,0 5.334,0.234 7.209,0.469 1.406,0.117 3.165,-0.41 3.165,-3.282 0,-2.461 -1.056,-4.454 -1.993,-5.041 -1.348,-0.878 -5.099,-1.581 -10.022,-1.581 -11.897,0 -16.233,4.689 -16.233,14.945 l 0,0.703 c 0,13.889 5.978,16.878 15.94,16.878 8.908,0 12.952,-3.634 12.952,-12.19 0,-5.099 -0.527,-6.506 -5.45,-6.974 L 2.051,-7.618 Z"
           inkscape:connector-curvature="0" />
      </g>
      <g
         transform="matrix(1.25,0,0,-1.25,466.66965,169.89312)"
         id="g3391">
        <path
           id="path3393"
           style="fill:#58aeb4;fill-opacity:1;fill-rule:nonzero;stroke:none"
           d="m 0,0 c 0,-1.23 0.82,-1.699 2.227,-1.699 l 10.021,0 c 0.939,0 1.289,-0.352 1.289,-1.172 0,-0.939 -0.35,-1.289 -1.289,-1.289 l -9.727,0 c -3.634,0 -5.334,1.289 -5.334,4.22 l 0,34.342 c 0,1.171 0.411,1.523 1.406,1.523 C -0.41,35.925 0,35.573 0,34.402 L 0,0 Z"
           inkscape:connector-curvature="0" />
      </g>
      <g
         transform="matrix(1.25,0,0,-1.25,510.0339,159.63675)"
         id="g3395">
        <path
           id="path3397"
           style="fill:#58aeb4;fill-opacity:1;fill-rule:nonzero;stroke:none"
           d="m 0,0 c 0,2.461 -0.175,2.988 -2.637,2.988 l -3.282,0 c -6.915,0 -9.669,-0.878 -9.669,-7.208 0,-5.216 2.696,-6.563 9.552,-6.563 5.92,0 6.036,0.234 6.036,3.985 L 0,0 Z M -2.05,5.45 C -0.058,5.626 0,5.743 0,9.61 c 0,5.16 -0.995,7.678 -7.5,7.678 -2.286,0 -5.1,-0.292 -7.326,-0.82 -0.704,-0.176 -1.055,0.528 -1.055,1.054 0,0.646 0.176,0.88 0.586,1.055 1.759,0.586 4.864,0.997 7.501,0.997 8.732,0 10.315,-2.813 10.315,-10.783 l 0,-17.992 c 0,-3.224 -0.938,-3.751 -8.557,-3.751 -8.966,0 -12.19,2.11 -12.19,8.732 0,6.505 1.935,8.497 10.726,9.26 l 5.45,0.41 z"
           inkscape:connector-curvature="0" />
      </g>
      <g
         transform="matrix(1.25,0,0,-1.25,524.90453,169.013)"
         id="g3399">
        <path
           id="path3401"
           style="fill:#58aeb4;fill-opacity:1;fill-rule:nonzero;stroke:none"
           d="m 0,0 c 0,-3.048 1.523,-3.166 6.036,-3.166 8.498,0 10.902,3.517 10.902,14.711 0,10.138 -2.638,13.244 -9.73,13.244 C 4.103,24.789 0,24.672 0,22.562 L 0,0 Z m -2.695,36.569 c 0,1.289 0.351,1.641 1.289,1.641 C -0.352,38.21 0,37.858 0,36.569 l 0,-9.084 c 0,-0.527 0.059,-0.821 0.82,-0.821 1.056,0 3.341,0.411 6.857,0.411 8.791,0 12.073,-4.395 12.073,-15.53 0,-12.015 -3.224,-16.996 -13.362,-16.996 -2.637,0 -4.689,0.118 -6.622,0.41 -2.11,0.294 -2.461,1.056 -2.461,2.696 l 0,38.914 z"
           inkscape:connector-curvature="0" />
      </g>
      <g
         transform="matrix(1.25,0,0,-1.25,131.6544,190.60962)"
         id="g3467">
        <path
           id="path3469"
           style="fill:#48676e;fill-opacity:1;fill-rule:nonzero;stroke:none"
           d="m 0,0 0.018,9.197 c 3.579,0.217 6.01,3.246 6.021,8.357 0.015,7.489 -5.172,16.608 -11.585,20.367 -6.416,3.758 -11.626,0.732 -11.643,-6.757 -0.011,-5.48 2.766,-11.831 6.769,-16.318 l -0.019,-8.73 -13.32,7.806 0.08,39.776 -6.812,4.685 c -3.677,-6.918 -5.765,-14.826 -5.765,-23.228 0,-16.705 8.244,-31.462 20.847,-40.347 1.079,-0.761 -27.423,-8.797 -27.423,-8.797 0,0 45.311,0.275 53.64,0 l 0,7.656 L 0,0 Z"
           inkscape:connector-curvature="0" />
      </g>
      <g
         transform="matrix(1.25,0,0,-1.25,200.8439,117.66411)"
         id="g3471">
        <path
           id="path3473"
           style="fill:#f9a922;fill-opacity:1;fill-rule:nonzero;stroke:none"
           d="m 0,0 -6.473,-4.452 -0.025,-12.491 -8.009,-4.649 c -1.975,3.023 -5.787,3.636 -10.175,1.089 -6.429,-3.732 -11.652,-12.829 -11.669,-20.319 -0.014,-7.49 5.185,-10.537 11.614,-6.805 4.705,2.731 8.761,8.334 10.608,14.078 l 7.605,4.416 -0.032,-15.555 -34.757,-20.175 0,-7.483 C -15.176,-71.483 5.75,-49.813 5.75,-23.201 5.75,-14.812 3.668,-6.912 0,0"
           inkscape:connector-curvature="0" />
      </g>
      <g
         transform="matrix(1.25,0,0,-1.25,117.5474,111.19924)"
         id="g3475">
        <path
           id="path3477"
           style="fill:#58aeb4;fill-opacity:1;fill-rule:nonzero;stroke:none"
           d="m 0,0 7.975,-4.673 c -1.602,-3.239 -0.221,-6.88 4.155,-9.445 6.414,-3.759 16.826,-3.779 23.256,-0.048 6.428,3.732 6.44,9.805 0.027,13.562 -4.694,2.75 -11.527,3.497 -17.374,2.237 l -7.577,4.44 13.352,7.751 34.669,-20.315 6.529,4.148 C 56.41,11.553 41.128,20.8 23.709,20.8 6.298,20.8 -8.973,11.565 -17.578,-2.316 L -11.083,-6.433 0,0 Z"
           inkscape:connector-curvature="0" />
      </g>
    </g>
  </g>
</svg>
