<?xml version="1.0" encoding="UTF-8" standalone="no"?>
<svg
   xmlns:dc="http://purl.org/dc/elements/1.1/"
   xmlns:cc="http://creativecommons.org/ns#"
   xmlns:rdf="http://www.w3.org/1999/02/22-rdf-syntax-ns#"
   xmlns:svg="http://www.w3.org/2000/svg"
   xmlns="http://www.w3.org/2000/svg"
   xmlns:sodipodi="http://sodipodi.sourceforge.net/DTD/sodipodi-0.dtd"
   xmlns:inkscape="http://www.inkscape.org/namespaces/inkscape"
   viewBox="0 0 36.425804 38.673786"
   id="svg2"
   version="1.1"
   inkscape:version="0.91 r13725"
   sodipodi:docname="GarageLab_Logo_small.svg"
   width="36.425804"
   height="38.673786">
  <defs
     id="defs4">
    <clipPath
       clipPathUnits="userSpaceOnUse"
       id="clipPath2999">
      <path
         inkscape:connector-curvature="0"
         d="m 0,841.89 595.28,0 L 595.28,0 0,0 0,841.89 Z"
         id="path3001" />
    </clipPath>
  </defs>
  <sodipodi:namedview
     id="base"
     pagecolor="#ffffff"
     bordercolor="#666666"
     borderopacity="1.0"
     inkscape:pageopacity="0.0"
     inkscape:pageshadow="2"
     inkscape:zoom="2.8"
     inkscape:cx="-34.858178"
     inkscape:cy="-22.966325"
     inkscape:document-units="px"
     inkscape:current-layer="layer1"
     showgrid="false"
     fit-margin-top="4"
     fit-margin-left="2"
     fit-margin-right="2"
     fit-margin-bottom="4"
     inkscape:window-width="1280"
     inkscape:window-height="1002"
     inkscape:window-x="1358"
     inkscape:window-y="-8"
     inkscape:window-maximized="1" />
  <metadata
     id="metadata7">
    <rdf:RDF>
      <cc:Work
         rdf:about="">
        <dc:format>image/svg+xml</dc:format>
        <dc:type
           rdf:resource="http://purl.org/dc/dcmitype/StillImage" />
        <dc:title></dc:title>
      </cc:Work>
    </rdf:RDF>
  </metadata>
  <g
     inkscape:label="Ebene 1"
     inkscape:groupmode="layer"
     id="layer1"
     transform="translate(-88.910161,-157.33434)">
    <g
       id="g3432"
       transform="matrix(0.7046435,0,0,0.7046435,31.639493,52.180996)">
      <g
         transform="matrix(0.44275695,0,0,-0.44275695,103.07857,192.24271)"
         id="g3355">
        <path
           id="path3357"
           style="fill:#48676e;fill-opacity:1;fill-rule:nonzero;stroke:none"
           d="m 0,0 0.018,9.197 c 3.579,0.217 6.01,3.246 6.021,8.357 0.015,7.489 -5.172,16.608 -11.585,20.367 -6.416,3.758 -11.626,0.732 -11.643,-6.757 -0.011,-5.48 2.766,-11.831 6.769,-16.318 l -0.019,-8.73 -13.32,7.806 0.08,39.776 -6.812,4.685 c -3.677,-6.918 -5.765,-14.826 -5.765,-23.228 0,-16.705 8.244,-31.462 20.847,-40.347 1.079,-0.761 -27.423,-8.797 -27.423,-8.797 0,0 45.311,0.275 53.64,0 l 0,7.656 L 0,0 Z"
           inkscape:connector-curvature="0" />
      </g>
      <g
         transform="matrix(0.44275695,0,0,-0.44275695,127.58587,166.405)"
         id="g3359">
        <path
           id="path3361"
           style="fill:#f9a922;fill-opacity:1;fill-rule:nonzero;stroke:none"
           d="m 0,0 -6.473,-4.452 -0.025,-12.491 -8.009,-4.649 c -1.975,3.023 -5.787,3.636 -10.175,1.089 -6.429,-3.732 -11.652,-12.829 -11.669,-20.319 -0.014,-7.49 5.185,-10.537 11.614,-6.805 4.705,2.731 8.761,8.334 10.608,14.078 l 7.605,4.416 -0.032,-15.555 -34.757,-20.175 0,-7.483 C -15.176,-71.483 5.75,-49.813 5.75,-23.201 5.75,-14.812 3.668,-6.912 0,0"
           inkscape:connector-curvature="0" />
      </g>
      <g
         transform="matrix(0.44275695,0,0,-0.44275695,98.081788,164.11511)"
         id="g3363">
        <path
           id="path3365"
           style="fill:#58aeb4;fill-opacity:1;fill-rule:nonzero;stroke:none"
           d="m 0,0 7.975,-4.673 c -1.602,-3.239 -0.221,-6.88 4.155,-9.445 6.414,-3.759 16.826,-3.779 23.256,-0.048 6.428,3.732 6.44,9.805 0.027,13.562 -4.694,2.75 -11.527,3.497 -17.374,2.237 l -7.577,4.44 13.352,7.751 34.669,-20.315 6.529,4.148 C 56.41,11.553 41.128,20.8 23.709,20.8 6.298,20.8 -8.973,11.565 -17.578,-2.316 L -11.083,-6.433 0,0 Z"
           inkscape:connector-curvature="0" />
      </g>
      <g
         transform="matrix(0.44275695,0,0,-0.44275695,103.07857,192.24271)"
         id="g3467">
        <path
           id="path3469"
           style="fill:#48676e;fill-opacity:1;fill-rule:nonzero;stroke:none"
           d="m 0,0 0.018,9.197 c 3.579,0.217 6.01,3.246 6.021,8.357 0.015,7.489 -5.172,16.608 -11.585,20.367 -6.416,3.758 -11.626,0.732 -11.643,-6.757 -0.011,-5.48 2.766,-11.831 6.769,-16.318 l -0.019,-8.73 -13.32,7.806 0.08,39.776 -6.812,4.685 c -3.677,-6.918 -5.765,-14.826 -5.765,-23.228 0,-16.705 8.244,-31.462 20.847,-40.347 1.079,-0.761 -27.423,-8.797 -27.423,-8.797 0,0 45.311,0.275 53.64,0 l 0,7.656 L 0,0 Z"
           inkscape:connector-curvature="0" />
      </g>
      <g
         transform="matrix(0.44275695,0,0,-0.44275695,127.58587,166.405)"
         id="g3471">
        <path
           id="path3473"
           style="fill:#f9a922;fill-opacity:1;fill-rule:nonzero;stroke:none"
           d="m 0,0 -6.473,-4.452 -0.025,-12.491 -8.009,-4.649 c -1.975,3.023 -5.787,3.636 -10.175,1.089 -6.429,-3.732 -11.652,-12.829 -11.669,-20.319 -0.014,-7.49 5.185,-10.537 11.614,-6.805 4.705,2.731 8.761,8.334 10.608,14.078 l 7.605,4.416 -0.032,-15.555 -34.757,-20.175 0,-7.483 C -15.176,-71.483 5.75,-49.813 5.75,-23.201 5.75,-14.812 3.668,-6.912 0,0"
           inkscape:connector-curvature="0" />
      </g>
      <g
         transform="matrix(0.44275695,0,0,-0.44275695,98.081788,164.11511)"
         id="g3475">
        <path
           id="path3477"
           style="fill:#58aeb4;fill-opacity:1;fill-rule:nonzero;stroke:none"
           d="m 0,0 7.975,-4.673 c -1.602,-3.239 -0.221,-6.88 4.155,-9.445 6.414,-3.759 16.826,-3.779 23.256,-0.048 6.428,3.732 6.44,9.805 0.027,13.562 -4.694,2.75 -11.527,3.497 -17.374,2.237 l -7.577,4.44 13.352,7.751 34.669,-20.315 6.529,4.148 C 56.41,11.553 41.128,20.8 23.709,20.8 6.298,20.8 -8.973,11.565 -17.578,-2.316 L -11.083,-6.433 0,0 Z"
           inkscape:connector-curvature="0" />
      </g>
    </g>
  </g>
</svg>
